<svg width="51" height="51" viewBox="0 0 51 51" fill="none" xmlns="http://www.w3.org/2000/svg">
    <rect width="51" height="51" rx="8" fill="#FFF9CB" />
    <path
        d="M26 35C27.1819 35 28.3522 34.7672 29.4442 34.3149C30.5361 33.8626 31.5282 33.1997 32.364 32.364C33.1997 31.5282 33.8626 30.5361 34.3149 29.4442C34.7672 28.3522 35 27.1819 35 26C35 24.8181 34.7672 23.6478 34.3149 22.5558C33.8626 21.4639 33.1997 20.4718 32.364 19.636C31.5282 18.8003 30.5361 18.1374 29.4442 17.6851C28.3522 17.2328 27.1819 17 26 17M26 35C24.8181 35 23.6478 34.7672 22.5558 34.3149C21.4639 33.8626 20.4718 33.1997 19.636 32.364C18.8003 31.5282 18.1374 30.5361 17.6851 29.4442C17.2328 28.3522 17 27.1819 17 26C17 24.8181 17.2328 23.6478 17.6851 22.5558C18.1374 21.4639 18.8003 20.4718 19.636 19.636C20.4718 18.8003 21.4639 18.1374 22.5558 17.6851C23.6478 17.2328 24.8181 17 26 17M26 35C28.761 35 29.941 29.837 29.941 26C29.941 22.163 28.761 17 26 17M26 35C23.239 35 22.059 29.837 22.059 26C22.059 22.163 23.239 17 26 17M17.5 23H34.5M17.5 29H34.5"
        stroke="#ECD35F" stroke-width="1.5" stroke-linecap="round" stroke-linejoin="round" />
</svg>